<svg width="1030" height="193" viewBox="0 0 1030 193" fill="none" xmlns="http://www.w3.org/2000/svg">
<path d="M5.48438 127.188C5.48438 132.156 7.40625 136.703 11.25 140.828C15.75 145.609 21.7031 148 29.1094 148V136.75C24.0469 136.75 20.4375 134.875 18.2812 131.125C17.5312 129.812 17.1562 128.5 17.1562 127.188V93.0156C17.1562 90.0156 18.7031 87.4375 21.7969 85.2812C23.9531 83.875 26.3906 83.1719 29.1094 83.1719V71.9219C20.1094 71.9219 13.3594 75.4375 8.85938 82.4688C6.60938 85.9375 5.48438 89.3594 5.48438 92.7344V127.188ZM35.4375 83.3125C40.0312 83.3125 43.2188 85.2812 45 89.2188C45.6562 90.7188 46.0312 92.2656 46.125 93.8594V97.2344L57.0938 93.0156C57.0938 86.1719 54.2812 80.5938 48.6562 76.2812C44.7188 73.375 40.3125 71.9219 35.4375 71.9219V83.3125ZM35.4375 148.141C42.0938 148.234 47.9062 145.703 52.875 140.547C56.8125 136.328 58.7812 131.734 58.7812 126.766L47.8125 122.688C47.8125 122.781 47.8125 122.875 47.8125 122.969C47.8125 123.062 47.8125 123.25 47.8125 123.531C47.8125 123.812 47.8125 124.047 47.8125 124.234C47.8125 124.422 47.8125 124.656 47.8125 124.938C47.8125 125.125 47.8125 125.312 47.8125 125.5L47.6719 125.781C47.2031 131.031 44.5781 134.453 39.7969 136.047C38.3906 136.516 36.9375 136.75 35.4375 136.75V148.141ZM66.9375 130.281C66.9375 135.438 69.4688 139.797 74.5312 143.359C78.8438 146.359 83.9062 147.859 89.7188 147.859V136.891C81.5625 136.703 77.4375 133.609 77.3438 127.609V123.812C77.4375 121.75 78 120.25 79.0312 119.312C80.1562 118.281 85.1719 116.688 94.0781 114.531C101.016 112.844 105.703 111.344 108.141 110.031V126.203C108.141 132.297 105.188 135.812 99.2812 136.75C98.3438 136.844 97.4531 136.891 96.6094 136.891V147.859C103.172 147.766 108.328 146.125 112.078 142.938C114.984 146.219 118.781 147.859 123.469 147.859V136.75C121.031 136.562 119.766 135.016 119.672 132.109V93.5781C119.672 87.5781 117.375 82.3281 112.781 77.8281C108.469 73.7031 103.078 71.6406 96.6094 71.6406V82.4688C101.016 82.4688 104.297 84.25 106.453 87.8125C107.578 89.6875 108.141 91.75 108.141 94V96.6719C108.141 99.0156 102.562 101.734 91.4062 104.828C81.375 107.641 75.6094 109.422 74.1094 110.172C69.3281 112.984 66.9375 117.438 66.9375 123.531V130.281ZM67.9219 90.7656L78.3281 94.7031C78.3281 89.4531 80.4844 85.7969 84.7969 83.7344C86.3906 82.9844 88.0781 82.6094 89.8594 82.6094V71.6406C83.3906 71.6406 77.8594 73.9844 73.2656 78.6719C69.7031 82.2344 67.9219 86.2656 67.9219 90.7656ZM134.016 148V71.9219H145.969V82.3281C148.406 78.2031 152.062 75.1562 156.938 73.1875C159.562 72.1562 162.141 71.6406 164.672 71.6406H167.203L164.391 83.1719C159.234 83.2656 154.641 86.0312 150.609 91.4688C147.516 95.7812 145.969 100.234 145.969 104.828V148H134.016ZM175.219 148V48.7188H187.734V148H175.219ZM198.984 127.188V92.4531C198.984 88.0469 200.953 83.7344 204.891 79.5156C209.766 74.4531 215.859 71.9219 223.172 71.9219V83.3125C217.641 83.3125 213.797 85.6094 211.641 90.2031C210.984 91.6094 210.656 93.0156 210.656 94.4219V125.359C210.656 128.828 212.25 131.781 215.438 134.219C217.688 135.906 220.266 136.75 223.172 136.75V148.141C214.266 148.141 207.375 144.531 202.5 137.312C200.156 133.75 198.984 130.375 198.984 127.188ZM229.219 148.141V136.75C234.188 136.75 237.75 134.5 239.906 130C240.656 128.5 241.031 127.047 241.031 125.641V94.4219C241.031 90.5781 239.391 87.5312 236.109 85.2812C234.047 83.9688 231.703 83.3125 229.078 83.3125V71.9219C237.703 71.9219 244.359 75.4375 249.047 82.4688C251.391 85.9375 252.562 89.2656 252.562 92.4531V127.188C252.562 131.781 250.594 136.234 246.656 140.547C242.062 145.516 236.25 148.047 229.219 148.141ZM260.719 128.031L271.828 125.922C271.828 130.141 274.031 133.469 278.438 135.906C280.594 136.938 282.656 137.5 284.625 137.594V148.703C275.531 148.703 268.734 145.422 264.234 138.859C261.891 135.391 260.719 131.781 260.719 128.031ZM261.422 93.4375C261.422 84.9062 265.312 78.5781 273.094 74.4531C276.844 72.4844 280.594 71.5 284.344 71.5V82.4688C280.031 82.4688 276.703 84.25 274.359 87.8125C273.141 89.5938 272.531 91.4688 272.531 93.4375C272.531 96.4375 274.875 98.875 279.562 100.75C283.125 102.25 290.016 104.219 300.234 106.656C306.609 107.969 311.156 111.109 313.875 116.078C315.281 118.703 315.984 121.656 315.984 124.938C315.984 133.938 312.375 140.594 305.156 144.906C300.938 147.438 296.109 148.703 290.672 148.703V137.594C294.984 137.594 298.594 136.094 301.5 133.094C303.562 130.938 304.594 128.406 304.594 125.5C304.594 121.75 300.891 118.75 293.484 116.5C291.609 115.938 288.609 115.141 284.484 114.109C280.078 113.078 276.891 112.234 274.922 111.578C267.797 108.766 263.484 104.5 261.984 98.7812C261.609 97.0938 261.422 95.3125 261.422 93.4375ZM290.531 82.6094V71.5C298.594 71.5 305.109 74.5 310.078 80.5C313.172 84.3438 314.719 88.375 314.719 92.5938L303.609 94.4219C303.609 89.2656 300.797 85.6562 295.172 83.5938C293.484 82.9375 291.938 82.6094 290.531 82.6094ZM323.016 127.188V92.4531C323.109 87.3906 325.406 82.7031 329.906 78.3906C334.312 74.1719 339.469 72.0625 345.375 72.0625H356.484V83.4531H345.516C341.672 83.4531 338.531 85.1875 336.094 88.6562C335.062 90.25 334.547 91.75 334.547 93.1562V126.906C334.547 129.906 336.234 132.484 339.609 134.641C341.578 135.953 343.594 136.609 345.656 136.609H356.484V148H345.797C337.453 148 330.984 144.391 326.391 137.172C324.141 133.609 323.016 130.281 323.016 127.188ZM363.234 148L363.375 48.5781H375.469V148H363.234ZM387.562 112.281V101.031H432V112.281H387.562ZM441 128.031L452.109 125.922C452.109 130.141 454.312 133.469 458.719 135.906C460.875 136.938 462.938 137.5 464.906 137.594V148.703C455.812 148.703 449.016 145.422 444.516 138.859C442.172 135.391 441 131.781 441 128.031ZM441.703 93.4375C441.703 84.9062 445.594 78.5781 453.375 74.4531C457.125 72.4844 460.875 71.5 464.625 71.5V82.4688C460.312 82.4688 456.984 84.25 454.641 87.8125C453.422 89.5938 452.812 91.4688 452.812 93.4375C452.812 96.4375 455.156 98.875 459.844 100.75C463.406 102.25 470.297 104.219 480.516 106.656C486.891 107.969 491.438 111.109 494.156 116.078C495.562 118.703 496.266 121.656 496.266 124.938C496.266 133.938 492.656 140.594 485.438 144.906C481.219 147.438 476.391 148.703 470.953 148.703V137.594C475.266 137.594 478.875 136.094 481.781 133.094C483.844 130.938 484.875 128.406 484.875 125.5C484.875 121.75 481.172 118.75 473.766 116.5C471.891 115.938 468.891 115.141 464.766 114.109C460.359 113.078 457.172 112.234 455.203 111.578C448.078 108.766 443.766 104.5 442.266 98.7812C441.891 97.0938 441.703 95.3125 441.703 93.4375ZM470.812 82.6094V71.5C478.875 71.5 485.391 74.5 490.359 80.5C493.453 84.3438 495 88.375 495 92.5938L483.891 94.4219C483.891 89.2656 481.078 85.6562 475.453 83.5938C473.766 82.9375 472.219 82.6094 470.812 82.6094ZM501.891 128.031L513 125.922C513 130.141 515.203 133.469 519.609 135.906C521.766 136.938 523.828 137.5 525.797 137.594V148.703C516.703 148.703 509.906 145.422 505.406 138.859C503.062 135.391 501.891 131.781 501.891 128.031ZM502.594 93.4375C502.594 84.9062 506.484 78.5781 514.266 74.4531C518.016 72.4844 521.766 71.5 525.516 71.5V82.4688C521.203 82.4688 517.875 84.25 515.531 87.8125C514.312 89.5938 513.703 91.4688 513.703 93.4375C513.703 96.4375 516.047 98.875 520.734 100.75C524.297 102.25 531.188 104.219 541.406 106.656C547.781 107.969 552.328 111.109 555.047 116.078C556.453 118.703 557.156 121.656 557.156 124.938C557.156 133.938 553.547 140.594 546.328 144.906C542.109 147.438 537.281 148.703 531.844 148.703V137.594C536.156 137.594 539.766 136.094 542.672 133.094C544.734 130.938 545.766 128.406 545.766 125.5C545.766 121.75 542.062 118.75 534.656 116.5C532.781 115.938 529.781 115.141 525.656 114.109C521.25 113.078 518.062 112.234 516.094 111.578C508.969 108.766 504.656 104.5 503.156 98.7812C502.781 97.0938 502.594 95.3125 502.594 93.4375ZM531.703 82.6094V71.5C539.766 71.5 546.281 74.5 551.25 80.5C554.344 84.3438 555.891 88.375 555.891 92.5938L544.781 94.4219C544.781 89.2656 541.969 85.6562 536.344 83.5938C534.656 82.9375 533.109 82.6094 531.703 82.6094ZM564.891 140.828C564.891 137.453 566.391 135.062 569.391 133.656C570.516 133.094 571.641 132.812 572.766 132.812C576.047 132.812 578.438 134.359 579.938 137.453C580.406 138.578 580.641 139.703 580.641 140.828C580.641 144.016 579.188 146.312 576.281 147.719C575.062 148.281 573.891 148.562 572.766 148.562C569.484 148.562 567.141 147.109 565.734 144.203C565.172 143.078 564.891 141.953 564.891 140.828ZM589.078 174.016L592.031 163.047H618.469C623.719 162.859 627.562 160.797 630 156.859C630.75 155.547 631.125 154.375 631.125 153.344V143.219C627.281 145.938 623.438 147.391 619.594 147.578V136.75C623.719 136.75 627 135.016 629.438 131.547C630.562 129.953 631.125 128.359 631.125 126.766V92.3125C631.125 88.75 629.156 85.9375 625.219 83.875C623.344 82.9375 621.469 82.4688 619.594 82.4688V71.3594C623.812 71.3594 627.516 72.6719 630.703 75.2969C630.891 75.3906 631.031 75.4844 631.125 75.5781V71.3594H642.516V153.344C642.516 157.375 640.688 161.547 637.031 165.859C632.438 171.203 626.766 173.922 620.016 174.016H589.078ZM590.484 126.906V91.75C590.578 87.3438 592.547 83.0312 596.391 78.8125C600.984 73.9375 606.656 71.4531 613.406 71.3594V82.4688C608.812 82.4688 605.344 84.4375 603 88.375C602.156 89.7812 601.734 91.0469 601.734 92.1719V126.766C601.734 129.578 603.188 132.062 606.094 134.219C608.25 135.719 610.688 136.469 613.406 136.469V147.578C604.781 147.484 598.219 143.828 593.719 136.609C591.562 133.141 590.484 129.906 590.484 126.906ZM654.469 61.5156C654.469 58.6094 655.828 56.5469 658.547 55.3281C659.484 54.9531 660.422 54.7656 661.359 54.7656C664.172 54.7656 666.234 56.0781 667.547 58.7031C667.922 59.6406 668.109 60.5781 668.109 61.5156C668.109 64.3281 666.797 66.3906 664.172 67.7031C663.234 68.0781 662.297 68.2656 661.359 68.2656C658.453 68.2656 656.344 66.9531 655.031 64.3281C654.656 63.3906 654.469 62.4531 654.469 61.5156ZM655.453 148V73.8906H667.266V148H655.453ZM676.969 84.1562V72.7656H686.25V48.4375H698.203V72.7656H707.203V84.2969H698.203V124.656C698.203 131.312 700.922 135.016 706.359 135.766C707.391 135.953 708.422 136.047 709.453 136.047H711.422L714.094 148H709.031C697.5 147.906 690.422 143.594 687.797 135.062C686.859 131.875 686.391 127.938 686.391 123.25L686.25 84.1562H676.969ZM720.562 148.422V48.7188H731.672V78.1094C735.141 75.0156 739.406 73.4219 744.469 73.3281V84.2969C740.25 84.2969 736.688 86.1719 733.781 89.9219C732.469 91.7031 731.812 93.3438 731.812 94.8438V148.422H720.562ZM751.078 84.2969V73.3281C759.797 73.3281 766.359 76.4688 770.766 82.75C773.109 86.125 774.281 89.7344 774.281 93.5781V148.422H763.031V94.8438C763.031 91.2812 761.438 88.4219 758.25 86.2656C756.188 84.9531 753.797 84.2969 751.078 84.2969ZM784.547 127.75V72.0625H796.5V126.344C796.5 129.719 798.188 132.531 801.562 134.781C803.812 136.188 806.297 136.891 809.016 136.891V148.703C800.016 148.703 793.078 145.188 788.203 138.156C785.766 134.594 784.547 131.125 784.547 127.75ZM815.203 148.703V136.891C820.266 136.891 823.969 134.875 826.312 130.844C827.156 129.344 827.578 127.844 827.578 126.344V72.0625H839.531V127.75C839.531 132.156 837.516 136.516 833.484 140.828C828.609 145.984 822.516 148.609 815.203 148.703ZM850.641 148V48.5781H862.734V148H850.641ZM869.625 148V136.609H880.734C884.391 136.609 887.484 134.969 890.016 131.688C891.234 130 891.844 128.406 891.844 126.906V92.875C891.844 90.0625 890.297 87.5781 887.203 85.4219C885.141 84.0156 883.031 83.3125 880.875 83.3125H869.625V71.9219H880.875C888.375 71.9219 894.469 75.0625 899.156 81.3438C901.875 85 903.281 88.6562 903.375 92.3125V127.188C903.375 131.5 901.5 135.812 897.75 140.125C893.156 145.281 887.438 147.906 880.594 148H869.625ZM912.516 140.828C912.516 137.453 914.016 135.062 917.016 133.656C918.141 133.094 919.266 132.812 920.391 132.812C923.672 132.812 926.062 134.359 927.562 137.453C928.031 138.578 928.266 139.703 928.266 140.828C928.266 144.016 926.812 146.312 923.906 147.719C922.688 148.281 921.516 148.562 920.391 148.562C917.109 148.562 914.766 147.109 913.359 144.203C912.797 143.078 912.516 141.953 912.516 140.828ZM939.656 61.5156C939.656 58.6094 941.016 56.5469 943.734 55.3281C944.672 54.9531 945.609 54.7656 946.547 54.7656C949.359 54.7656 951.422 56.0781 952.734 58.7031C953.109 59.6406 953.297 60.5781 953.297 61.5156C953.297 64.3281 951.984 66.3906 949.359 67.7031C948.422 68.0781 947.484 68.2656 946.547 68.2656C943.641 68.2656 941.531 66.9531 940.219 64.3281C939.844 63.3906 939.656 62.4531 939.656 61.5156ZM940.641 148V73.8906H952.453V148H940.641ZM965.109 127.188V92.4531C965.109 88.0469 967.078 83.7344 971.016 79.5156C975.891 74.4531 981.984 71.9219 989.297 71.9219V83.3125C983.766 83.3125 979.922 85.6094 977.766 90.2031C977.109 91.6094 976.781 93.0156 976.781 94.4219V125.359C976.781 128.828 978.375 131.781 981.562 134.219C983.812 135.906 986.391 136.75 989.297 136.75V148.141C980.391 148.141 973.5 144.531 968.625 137.312C966.281 133.75 965.109 130.375 965.109 127.188ZM995.344 148.141V136.75C1000.31 136.75 1003.88 134.5 1006.03 130C1006.78 128.5 1007.16 127.047 1007.16 125.641V94.4219C1007.16 90.5781 1005.52 87.5312 1002.23 85.2812C1000.17 83.9688 997.828 83.3125 995.203 83.3125V71.9219C1003.83 71.9219 1010.48 75.4375 1015.17 82.4688C1017.52 85.9375 1018.69 89.2656 1018.69 92.4531V127.188C1018.69 131.781 1016.72 136.234 1012.78 140.547C1008.19 145.516 1002.38 148.047 995.344 148.141Z" fill="#00ADD8"/>
<rect x="57" y="162" width="504" height="2" fill="#757575"/>
</svg>
